<svg xmlns="http://www.w3.org/2000/svg" version="1.1" xmlns:xlink="http://www.w3.org/1999/xlink" xmlns:svgjs="http://svgjs.dev/svgjs" width="151.4" height="80.602"><svg width="151.4" height="80.602" viewBox="0 0 151.4 80.602" xmlns="http://www.w3.org/2000/svg"><g id="SvgjsG1012" stroke-linecap="round" fill-rule="evenodd" font-size="9pt" stroke="#16a34a" stroke-width="0mm" fill="#16a34a" style="stroke:#16a34a;stroke-width:0mm;fill:#16a34a"><path d="M 60.097 49.159 A 1.567 1.567 0 0 0 58.6 48.201 A 5.217 5.217 0 0 0 58.163 48.218 Q 57.069 48.31 56.9 48.901 A 33.833 33.833 0 0 1 56.747 52.158 A 24.704 24.704 0 0 1 49.15 68.201 Q 41.4 75.601 31.15 75.601 A 41.642 41.642 0 0 1 27.961 75.482 Q 19.958 74.867 15.05 71.051 A 14.537 14.537 0 0 1 9.815 62.8 A 22.656 22.656 0 0 1 9.2 57.351 A 21.573 21.573 0 0 1 9.41 54.281 A 14.317 14.317 0 0 1 16 43.801 A 23.404 23.404 0 0 1 18.565 42.364 Q 21.936 40.741 26.096 40.006 A 42.64 42.64 0 0 1 33.5 39.401 A 6.431 6.431 0 0 0 33.787 39.394 Q 35.815 39.304 36.327 37.9 A 3.2 3.2 0 0 0 36.5 36.801 A 3.167 3.167 0 0 0 36.476 36.401 A 2.112 2.112 0 0 0 35.55 34.851 Q 34.6 34.201 33.5 34.201 Q 13.4 34.201 13.4 19.301 Q 13.4 12.201 17.6 8.551 A 14.343 14.343 0 0 1 23.522 5.48 A 19.511 19.511 0 0 1 28.4 4.901 Q 31.752 4.901 34.459 5.597 A 15.296 15.296 0 0 1 39.1 7.601 A 8.615 8.615 0 0 1 42.716 12.307 A 11.248 11.248 0 0 1 43.2 15.701 Q 43.2 17.901 42.6 19.401 A 2.023 2.023 0 0 0 42.878 19.733 Q 43.519 20.353 44.789 20.53 A 8.093 8.093 0 0 0 45.9 20.601 Q 46.943 20.601 47.986 19.875 A 6.762 6.762 0 0 0 48.9 19.101 A 4.924 4.924 0 0 0 50.189 16.835 A 6.763 6.763 0 0 0 50.4 15.101 A 12.315 12.315 0 0 0 48.123 7.875 A 16.698 16.698 0 0 0 44.85 4.451 Q 40.948 1.322 34.376 0.393 A 43.166 43.166 0 0 0 28.35 0.001 A 45.089 45.089 0 0 0 25.762 0.073 Q 21.976 0.291 18.763 1.162 A 23.264 23.264 0 0 0 10.8 4.951 A 15.687 15.687 0 0 0 5.016 13.241 A 21.279 21.279 0 0 0 4.2 19.301 A 24.941 24.941 0 0 0 4.441 22.835 A 18.704 18.704 0 0 0 5.55 27.101 A 22.18 22.18 0 0 0 6.237 28.661 Q 6.758 29.727 7.337 30.576 A 9.868 9.868 0 0 0 8.7 32.201 Q 12.6 36.201 18 37.001 A 13.488 13.488 0 0 0 17.254 37.021 Q 13.682 37.219 9.7 39.301 Q 7.1 40.701 5.05 42.801 Q 3 44.901 1.5 48.701 Q 0 52.501 0 57.401 A 26.651 26.651 0 0 0 0.028 58.626 Q 0.494 68.745 8.75 74.501 A 32.895 32.895 0 0 0 20.639 79.594 A 45.888 45.888 0 0 0 30.5 80.601 A 37.373 37.373 0 0 0 34.019 80.438 A 30.78 30.78 0 0 0 43.6 78.001 Q 49.5 75.401 53.1 71.201 Q 60.5 62.601 60.5 51.501 Q 60.5 49.979 60.097 49.159 Z" id="SvgjsPath1011" vector-effect="non-scaling-stroke"></path><path d="M 64.8 31.201 L 64.8 52.401 A 48.927 48.927 0 0 0 65.205 58.994 Q 66.957 71.801 76.3 71.801 Q 78.8 71.801 80.7 70.301 A 24.262 24.262 0 0 1 75.184 62.304 A 29.19 29.19 0 0 1 74.4 60.301 Q 72.3 54.301 72.3 48.701 Q 72.3 39.604 74.706 34.602 A 14.684 14.684 0 0 1 75.15 33.751 A 9.474 9.474 0 0 1 82.014 28.942 A 15.228 15.228 0 0 1 84.8 28.701 A 11.179 11.179 0 0 1 88.314 29.229 A 9.17 9.17 0 0 1 92.35 31.901 Q 95.2 35.101 95.2 40.401 A 70.285 70.285 0 0 1 94.41 51.313 Q 93.524 56.934 91.647 61.456 A 30.414 30.414 0 0 1 86.9 69.401 A 14.593 14.593 0 0 0 93.978 71.393 A 17.334 17.334 0 0 0 94.5 71.401 Q 100.1 71.401 103.7 66.601 Q 107.16 61.988 107.295 52.666 A 52.826 52.826 0 0 0 107.3 51.901 A 0.539 0.539 0 0 1 107.584 51.519 Q 107.953 51.302 108.792 51.301 A 6.379 6.379 0 0 1 108.8 51.301 A 1.277 1.277 0 0 1 109.923 52.003 Q 110.536 53.012 110.594 55.469 A 22.461 22.461 0 0 1 110.6 56.001 A 27.066 27.066 0 0 1 109.907 62.282 A 19.777 19.777 0 0 1 106.4 69.801 Q 102.2 75.301 93.6 75.301 Q 87.8 75.301 83.6 72.501 A 15.616 15.616 0 0 1 79.009 74.745 A 13.896 13.896 0 0 1 75.1 75.301 A 19.382 19.382 0 0 1 68.197 74.114 A 17.31 17.31 0 0 1 61.15 69.101 Q 56.432 63.633 55.875 54.433 A 41.882 41.882 0 0 1 55.8 51.901 L 55.8 35.901 A 9.59 9.59 0 0 1 55.947 34.167 Q 56.269 32.416 57.3 31.351 A 5.021 5.021 0 0 1 60.886 29.804 A 6.663 6.663 0 0 1 61.1 29.801 A 6.13 6.13 0 0 1 62.752 30.012 A 4.59 4.59 0 0 1 64.8 31.201 Z M 83.3 34.101 A 4.536 4.536 0 0 0 79.165 36.749 Q 77.4 39.946 77.4 47.001 A 43.775 43.775 0 0 0 77.996 54.467 Q 78.708 58.571 80.269 61.825 A 20.593 20.593 0 0 0 83.5 66.701 A 23.801 23.801 0 0 0 85.401 61.725 Q 86.818 56.511 87.178 48.654 A 123.824 123.824 0 0 0 87.3 43.001 Q 87.3 37.939 86.006 35.756 A 3.017 3.017 0 0 0 83.3 34.101 Z" id="SvgjsPath1010" vector-effect="non-scaling-stroke"></path><path d="M 149.3 52.501 Q 151.4 52.501 151.4 55.701 A 20.16 20.16 0 0 1 147.061 68.191 A 25.781 25.781 0 0 1 146.25 69.201 Q 141.1 75.301 130.6 75.301 Q 120.1 75.301 113.75 69.651 A 18.083 18.083 0 0 1 108.331 60.657 Q 107.518 57.676 107.415 54.102 A 36.459 36.459 0 0 1 107.4 53.051 Q 107.4 42.101 113 35.951 A 18.33 18.33 0 0 1 126.358 29.819 A 23.917 23.917 0 0 1 127.3 29.801 Q 131.369 29.801 134.019 31.198 A 8.463 8.463 0 0 1 136.5 33.151 Q 139.4 36.501 139.4 41.101 A 14.97 14.97 0 0 1 134.443 52.437 A 20.239 20.239 0 0 1 133.15 53.551 A 22.333 22.333 0 0 1 123.727 57.861 A 31.692 31.692 0 0 1 117.2 58.501 A 20.744 20.744 0 0 0 118.156 62.528 Q 119.018 64.968 120.481 66.745 A 11.679 11.679 0 0 0 121.85 68.151 A 12.879 12.879 0 0 0 127.475 70.944 Q 129.429 71.397 131.714 71.401 A 23.149 23.149 0 0 0 131.75 71.401 Q 137.9 71.401 142.85 66.751 Q 147.8 62.101 147.8 53.101 A 0.539 0.539 0 0 1 148.084 52.719 Q 148.453 52.502 149.292 52.501 A 6.379 6.379 0 0 1 149.3 52.501 Z M 116.9 53.901 L 116.9 54.801 A 26.873 26.873 0 0 0 123.022 53.301 A 22.157 22.157 0 0 0 127.65 50.901 A 10.018 10.018 0 0 0 132.084 43.577 A 14.593 14.593 0 0 0 132.2 41.701 A 14.321 14.321 0 0 0 132.034 39.444 Q 131.846 38.266 131.444 37.321 A 6.311 6.311 0 0 0 130.5 35.751 A 5.534 5.534 0 0 0 126.99 33.799 A 8.132 8.132 0 0 0 125.7 33.701 Q 121 33.701 118.95 38.301 A 16.954 16.954 0 0 0 117.971 41.344 Q 117.197 44.676 116.982 49.755 A 98.589 98.589 0 0 0 116.9 53.901 Z" id="SvgjsPath1009" vector-effect="non-scaling-stroke"></path></g></svg><style>@media (prefers-color-scheme: light) { :root { filter: none; } }
@media (prefers-color-scheme: dark) { :root { filter: none; } }
</style></svg>