<svg xmlns="http://www.w3.org/2000/svg" version="1.1" xmlns:xlink="http://www.w3.org/1999/xlink" xmlns:svgjs="http://svgjs.dev/svgjs" width="1000" height="1000"><style>
    #light-icon {
      display: inline;
    }
    #dark-icon {
      display: none;
    }

    @media (prefers-color-scheme: dark) {
      #light-icon {
        display: none;
      }
      #dark-icon {
        display: inline;
      }
    }
  </style><g id="light-icon"><svg xmlns="http://www.w3.org/2000/svg" version="1.1" xmlns:xlink="http://www.w3.org/1999/xlink" xmlns:svgjs="http://svgjs.dev/svgjs" width="1000" height="1000"><g><g transform="matrix(1.953125,0,0,1.953125,0,0)"><svg xmlns="http://www.w3.org/2000/svg" version="1.1" xmlns:xlink="http://www.w3.org/1999/xlink" xmlns:svgjs="http://svgjs.dev/svgjs" width="512" height="512"><svg width="512" height="512" viewBox="0 0 151.4 80.602" xmlns="http://www.w3.org/2000/svg">
  <g stroke-linecap="round" fill-rule="evenodd" font-size="12" stroke-width="0" fill="#16a34a" style="stroke:#16a34a;stroke-width:0;fill:#16a34a" stroke="none">
    <path d="M60.097 49.159a1.57 1.57 0 0 0-1.497-.958 5 5 0 0 0-.437.017q-1.094.092-1.263.683a34 34 0 0 1-.153 3.257 24.7 24.7 0 0 1-7.597 16.043q-7.75 7.4-18 7.4a42 42 0 0 1-3.189-.119q-8.003-.615-12.911-4.431A14.54 14.54 0 0 1 9.815 62.8a22.7 22.7 0 0 1-.615-5.449 21.6 21.6 0 0 1 .21-3.07A14.32 14.32 0 0 1 16 43.801a23 23 0 0 1 2.565-1.437q3.371-1.623 7.531-2.358a42.6 42.6 0 0 1 7.404-.605 6 6 0 0 0 .287-.007q2.028-.09 2.54-1.494a3.2 3.2 0 0 0 .173-1.099 3 3 0 0 0-.024-.4 2.11 2.11 0 0 0-.926-1.55q-.95-.65-2.05-.65-20.1 0-20.1-14.9 0-7.1 4.2-10.75a14.34 14.34 0 0 1 5.922-3.071 19.5 19.5 0 0 1 4.878-.579q3.352 0 6.059.696A15.3 15.3 0 0 1 39.1 7.601a8.6 8.6 0 0 1 3.616 4.706 11.3 11.3 0 0 1 .484 3.394q0 2.2-.6 3.7a2 2 0 0 0 .278.332q.641.62 1.911.797a8 8 0 0 0 1.111.071q1.043 0 2.086-.726a7 7 0 0 0 .914-.774 4.9 4.9 0 0 0 1.289-2.266 6.8 6.8 0 0 0 .211-1.734 12.3 12.3 0 0 0-2.277-7.226 16.7 16.7 0 0 0-3.273-3.424Q40.948 1.322 34.376.393A43 43 0 0 0 28.35.001a45 45 0 0 0-2.588.072q-3.786.218-6.999 1.089A23.3 23.3 0 0 0 10.8 4.951a15.7 15.7 0 0 0-5.784 8.29 21.3 21.3 0 0 0-.816 6.06 25 25 0 0 0 .241 3.534 18.7 18.7 0 0 0 1.109 4.266 22 22 0 0 0 .687 1.56q.521 1.066 1.1 1.915A10 10 0 0 0 8.7 32.201q3.9 4 9.3 4.8a14 14 0 0 0-.746.02q-3.572.198-7.554 2.28-2.6 1.4-4.65 3.5t-3.55 5.9-1.5 8.7a27 27 0 0 0 .028 1.225Q.494 68.745 8.75 74.501a32.9 32.9 0 0 0 11.889 5.093 46 46 0 0 0 9.861 1.007 37 37 0 0 0 3.519-.163 30.8 30.8 0 0 0 9.581-2.437q5.9-2.6 9.5-6.8 7.4-8.6 7.4-19.7 0-1.522-.403-2.342Z" vector-effect="non-scaling-stroke"></path>
    <path d="M64.8 31.201v21.2a49 49 0 0 0 .405 6.593Q66.957 71.801 76.3 71.801q2.5 0 4.4-1.5a24.3 24.3 0 0 1-5.516-7.997 29 29 0 0 1-.784-2.003q-2.1-6-2.1-11.6 0-9.097 2.406-14.099a15 15 0 0 1 .444-.851 9.47 9.47 0 0 1 6.864-4.809 15 15 0 0 1 2.786-.241 11.2 11.2 0 0 1 3.514.528 9.17 9.17 0 0 1 4.036 2.672q2.85 3.2 2.85 8.5a70 70 0 0 1-.79 10.912q-.886 5.621-2.763 10.143a30.4 30.4 0 0 1-4.747 7.945 14.6 14.6 0 0 0 7.078 1.992 17 17 0 0 0 .522.008q5.6 0 9.2-4.8 3.46-4.613 3.595-13.935a53 53 0 0 0 .005-.765.54.54 0 0 1 .284-.382q.369-.217 1.208-.218h.008a1.28 1.28 0 0 1 1.123.702q.613 1.009.671 3.466a23 23 0 0 1 .006.532 27 27 0 0 1-.693 6.281 19.8 19.8 0 0 1-3.507 7.519q-4.2 5.5-12.8 5.5-5.8 0-10-2.8a15.6 15.6 0 0 1-4.591 2.244 13.9 13.9 0 0 1-3.909.556 19.4 19.4 0 0 1-6.903-1.187 17.3 17.3 0 0 1-7.047-5.013q-4.718-5.468-5.275-14.668a42 42 0 0 1-.075-2.532v-16a9.6 9.6 0 0 1 .147-1.734q.322-1.751 1.353-2.816a5.02 5.02 0 0 1 3.586-1.547l.214-.003a6 6 0 0 1 1.652.211 4.6 4.6 0 0 1 2.048 1.189Zm18.5 2.9a4.54 4.54 0 0 0-4.135 2.648Q77.4 39.946 77.4 47.001a44 44 0 0 0 .596 7.466q.712 4.104 2.273 7.358a20.6 20.6 0 0 0 3.231 4.876 23.8 23.8 0 0 0 1.901-4.976q1.417-5.214 1.777-13.071a124 124 0 0 0 .122-5.653q0-5.062-1.294-7.245a3.02 3.02 0 0 0-2.706-1.655Z" vector-effect="non-scaling-stroke"></path>
    <path d="M149.3 52.501q2.1 0 2.1 3.2a20.16 20.16 0 0 1-4.339 12.49 26 26 0 0 1-.811 1.01q-5.15 6.1-15.65 6.1t-16.85-5.65a18.1 18.1 0 0 1-5.419-8.994q-.813-2.981-.916-6.555a37 37 0 0 1-.015-1.051q0-10.95 5.6-17.1a18.33 18.33 0 0 1 13.358-6.132 24 24 0 0 1 .942-.018q4.069 0 6.719 1.397a8.5 8.5 0 0 1 2.481 1.953q2.9 3.35 2.9 7.95a14.97 14.97 0 0 1-4.957 11.336 20 20 0 0 1-1.293 1.114 22.3 22.3 0 0 1-9.423 4.31 31.7 31.7 0 0 1-6.527.64 20.7 20.7 0 0 0 .956 4.027q.862 2.44 2.325 4.217a11.7 11.7 0 0 0 1.369 1.406 12.9 12.9 0 0 0 5.625 2.793q1.954.453 4.239.457h.036q6.15 0 11.1-4.65t4.95-13.65a.54.54 0 0 1 .284-.382q.369-.217 1.208-.218zm-32.4 1.4v.9a27 27 0 0 0 6.122-1.5 22.2 22.2 0 0 0 4.628-2.4 10.02 10.02 0 0 0 4.434-7.324 15 15 0 0 0 .116-1.876 14 14 0 0 0-.166-2.257q-.188-1.178-.59-2.123a6.3 6.3 0 0 0-.944-1.57 5.53 5.53 0 0 0-3.51-1.952 8 8 0 0 0-1.29-.098q-4.7 0-6.75 4.6a17 17 0 0 0-.979 3.043q-.774 3.332-.989 8.411a99 99 0 0 0-.082 4.146Z" vector-effect="non-scaling-stroke"></path>
  </g>
</svg></svg></g></g></svg></g><g id="dark-icon"><svg xmlns="http://www.w3.org/2000/svg" version="1.1" xmlns:xlink="http://www.w3.org/1999/xlink" xmlns:svgjs="http://svgjs.dev/svgjs" width="1000" height="1000"><g clip-path="url(#SvgjsClipPath1062)"><rect width="1000" height="1000" fill="#ffffff"></rect><g transform="matrix(1.3671875,0,0,1.3671875,150,150)"><svg xmlns="http://www.w3.org/2000/svg" version="1.1" xmlns:xlink="http://www.w3.org/1999/xlink" xmlns:svgjs="http://svgjs.dev/svgjs" width="512" height="512"><svg width="512" height="512" viewBox="0 0 151.4 80.602" xmlns="http://www.w3.org/2000/svg">
  <g stroke-linecap="round" fill-rule="evenodd" font-size="12" stroke-width="0" fill="#16a34a" style="stroke:#16a34a;stroke-width:0;fill:#16a34a" stroke="none">
    <path d="M60.097 49.159a1.57 1.57 0 0 0-1.497-.958 5 5 0 0 0-.437.017q-1.094.092-1.263.683a34 34 0 0 1-.153 3.257 24.7 24.7 0 0 1-7.597 16.043q-7.75 7.4-18 7.4a42 42 0 0 1-3.189-.119q-8.003-.615-12.911-4.431A14.54 14.54 0 0 1 9.815 62.8a22.7 22.7 0 0 1-.615-5.449 21.6 21.6 0 0 1 .21-3.07A14.32 14.32 0 0 1 16 43.801a23 23 0 0 1 2.565-1.437q3.371-1.623 7.531-2.358a42.6 42.6 0 0 1 7.404-.605 6 6 0 0 0 .287-.007q2.028-.09 2.54-1.494a3.2 3.2 0 0 0 .173-1.099 3 3 0 0 0-.024-.4 2.11 2.11 0 0 0-.926-1.55q-.95-.65-2.05-.65-20.1 0-20.1-14.9 0-7.1 4.2-10.75a14.34 14.34 0 0 1 5.922-3.071 19.5 19.5 0 0 1 4.878-.579q3.352 0 6.059.696A15.3 15.3 0 0 1 39.1 7.601a8.6 8.6 0 0 1 3.616 4.706 11.3 11.3 0 0 1 .484 3.394q0 2.2-.6 3.7a2 2 0 0 0 .278.332q.641.62 1.911.797a8 8 0 0 0 1.111.071q1.043 0 2.086-.726a7 7 0 0 0 .914-.774 4.9 4.9 0 0 0 1.289-2.266 6.8 6.8 0 0 0 .211-1.734 12.3 12.3 0 0 0-2.277-7.226 16.7 16.7 0 0 0-3.273-3.424Q40.948 1.322 34.376.393A43 43 0 0 0 28.35.001a45 45 0 0 0-2.588.072q-3.786.218-6.999 1.089A23.3 23.3 0 0 0 10.8 4.951a15.7 15.7 0 0 0-5.784 8.29 21.3 21.3 0 0 0-.816 6.06 25 25 0 0 0 .241 3.534 18.7 18.7 0 0 0 1.109 4.266 22 22 0 0 0 .687 1.56q.521 1.066 1.1 1.915A10 10 0 0 0 8.7 32.201q3.9 4 9.3 4.8a14 14 0 0 0-.746.02q-3.572.198-7.554 2.28-2.6 1.4-4.65 3.5t-3.55 5.9-1.5 8.7a27 27 0 0 0 .028 1.225Q.494 68.745 8.75 74.501a32.9 32.9 0 0 0 11.889 5.093 46 46 0 0 0 9.861 1.007 37 37 0 0 0 3.519-.163 30.8 30.8 0 0 0 9.581-2.437q5.9-2.6 9.5-6.8 7.4-8.6 7.4-19.7 0-1.522-.403-2.342Z" vector-effect="non-scaling-stroke"></path>
    <path d="M64.8 31.201v21.2a49 49 0 0 0 .405 6.593Q66.957 71.801 76.3 71.801q2.5 0 4.4-1.5a24.3 24.3 0 0 1-5.516-7.997 29 29 0 0 1-.784-2.003q-2.1-6-2.1-11.6 0-9.097 2.406-14.099a15 15 0 0 1 .444-.851 9.47 9.47 0 0 1 6.864-4.809 15 15 0 0 1 2.786-.241 11.2 11.2 0 0 1 3.514.528 9.17 9.17 0 0 1 4.036 2.672q2.85 3.2 2.85 8.5a70 70 0 0 1-.79 10.912q-.886 5.621-2.763 10.143a30.4 30.4 0 0 1-4.747 7.945 14.6 14.6 0 0 0 7.078 1.992 17 17 0 0 0 .522.008q5.6 0 9.2-4.8 3.46-4.613 3.595-13.935a53 53 0 0 0 .005-.765.54.54 0 0 1 .284-.382q.369-.217 1.208-.218h.008a1.28 1.28 0 0 1 1.123.702q.613 1.009.671 3.466a23 23 0 0 1 .006.532 27 27 0 0 1-.693 6.281 19.8 19.8 0 0 1-3.507 7.519q-4.2 5.5-12.8 5.5-5.8 0-10-2.8a15.6 15.6 0 0 1-4.591 2.244 13.9 13.9 0 0 1-3.909.556 19.4 19.4 0 0 1-6.903-1.187 17.3 17.3 0 0 1-7.047-5.013q-4.718-5.468-5.275-14.668a42 42 0 0 1-.075-2.532v-16a9.6 9.6 0 0 1 .147-1.734q.322-1.751 1.353-2.816a5.02 5.02 0 0 1 3.586-1.547l.214-.003a6 6 0 0 1 1.652.211 4.6 4.6 0 0 1 2.048 1.189Zm18.5 2.9a4.54 4.54 0 0 0-4.135 2.648Q77.4 39.946 77.4 47.001a44 44 0 0 0 .596 7.466q.712 4.104 2.273 7.358a20.6 20.6 0 0 0 3.231 4.876 23.8 23.8 0 0 0 1.901-4.976q1.417-5.214 1.777-13.071a124 124 0 0 0 .122-5.653q0-5.062-1.294-7.245a3.02 3.02 0 0 0-2.706-1.655Z" vector-effect="non-scaling-stroke"></path>
    <path d="M149.3 52.501q2.1 0 2.1 3.2a20.16 20.16 0 0 1-4.339 12.49 26 26 0 0 1-.811 1.01q-5.15 6.1-15.65 6.1t-16.85-5.65a18.1 18.1 0 0 1-5.419-8.994q-.813-2.981-.916-6.555a37 37 0 0 1-.015-1.051q0-10.95 5.6-17.1a18.33 18.33 0 0 1 13.358-6.132 24 24 0 0 1 .942-.018q4.069 0 6.719 1.397a8.5 8.5 0 0 1 2.481 1.953q2.9 3.35 2.9 7.95a14.97 14.97 0 0 1-4.957 11.336 20 20 0 0 1-1.293 1.114 22.3 22.3 0 0 1-9.423 4.31 31.7 31.7 0 0 1-6.527.64 20.7 20.7 0 0 0 .956 4.027q.862 2.44 2.325 4.217a11.7 11.7 0 0 0 1.369 1.406 12.9 12.9 0 0 0 5.625 2.793q1.954.453 4.239.457h.036q6.15 0 11.1-4.65t4.95-13.65a.54.54 0 0 1 .284-.382q.369-.217 1.208-.218zm-32.4 1.4v.9a27 27 0 0 0 6.122-1.5 22.2 22.2 0 0 0 4.628-2.4 10.02 10.02 0 0 0 4.434-7.324 15 15 0 0 0 .116-1.876 14 14 0 0 0-.166-2.257q-.188-1.178-.59-2.123a6.3 6.3 0 0 0-.944-1.57 5.53 5.53 0 0 0-3.51-1.952 8 8 0 0 0-1.29-.098q-4.7 0-6.75 4.6a17 17 0 0 0-.979 3.043q-.774 3.332-.989 8.411a99 99 0 0 0-.082 4.146Z" vector-effect="non-scaling-stroke"></path>
  </g>
</svg></svg></g></g><defs><clipPath id="SvgjsClipPath1062"><rect width="1000" height="1000" x="0" y="0" rx="350" ry="350"></rect></clipPath></defs></svg></g></svg>